<?xml version="1.0" encoding="UTF-8"?>
<svg xmlns="http://www.w3.org/2000/svg" version="1.1" width="300" height="300" viewBox="0 0 300 300"><rect x="0" y="0" width="300" height="300" fill="#ffffff"/><g transform="scale(9.091)"><g transform="translate(0,0)"><path fill-rule="evenodd" d="M9 0L9 1L8 1L8 2L9 2L9 3L8 3L8 4L10 4L10 7L11 7L11 4L12 4L12 5L13 5L13 6L12 6L12 9L14 9L14 10L11 10L11 11L10 11L10 9L11 9L11 8L6 8L6 9L5 9L5 8L0 8L0 9L1 9L1 10L2 10L2 11L0 11L0 12L2 12L2 13L0 13L0 18L1 18L1 19L0 19L0 20L1 20L1 21L0 21L0 25L1 25L1 21L2 21L2 25L3 25L3 24L4 24L4 25L5 25L5 24L6 24L6 25L7 25L7 24L6 24L6 23L8 23L8 21L9 21L9 22L10 22L10 21L12 21L12 22L13 22L13 23L12 23L12 25L13 25L13 24L14 24L14 25L16 25L16 26L15 26L15 27L14 27L14 28L15 28L15 29L12 29L12 27L13 27L13 26L11 26L11 24L10 24L10 27L9 27L9 24L8 24L8 27L9 27L9 28L8 28L8 33L9 33L9 31L11 31L11 30L9 30L9 28L10 28L10 29L12 29L12 30L13 30L13 31L12 31L12 33L13 33L13 32L14 32L14 33L15 33L15 32L17 32L17 33L19 33L19 30L20 30L20 28L22 28L22 29L21 29L21 30L22 30L22 29L23 29L23 27L24 27L24 31L20 31L20 33L21 33L21 32L24 32L24 33L25 33L25 32L24 32L24 31L27 31L27 32L28 32L28 33L29 33L29 31L30 31L30 32L31 32L31 33L32 33L32 32L31 32L31 31L32 31L32 30L31 30L31 29L30 29L30 28L31 28L31 27L32 27L32 26L33 26L33 24L32 24L32 26L31 26L31 25L30 25L30 24L31 24L31 23L32 23L32 22L33 22L33 21L32 21L32 20L31 20L31 19L32 19L32 18L33 18L33 17L32 17L32 16L31 16L31 15L32 15L32 14L33 14L33 13L31 13L31 15L30 15L30 13L29 13L29 10L28 10L28 8L27 8L27 9L26 9L26 8L24 8L24 9L23 9L23 8L22 8L22 7L23 7L23 5L24 5L24 4L23 4L23 3L25 3L25 0L23 0L23 1L22 1L22 2L20 2L20 4L19 4L19 2L18 2L18 1L21 1L21 0L18 0L18 1L15 1L15 0L14 0L14 1L11 1L11 2L10 2L10 0ZM23 1L23 2L24 2L24 1ZM12 2L12 4L13 4L13 5L16 5L16 4L17 4L17 5L18 5L18 6L17 6L17 8L18 8L18 6L19 6L19 8L20 8L20 10L19 10L19 9L15 9L15 7L16 7L16 6L15 6L15 7L14 7L14 6L13 6L13 8L14 8L14 9L15 9L15 10L14 10L14 11L12 11L12 13L11 13L11 12L10 12L10 13L9 13L9 15L8 15L8 12L9 12L9 11L6 11L6 10L8 10L8 9L6 9L6 10L4 10L4 11L2 11L2 12L3 12L3 13L2 13L2 15L1 15L1 17L2 17L2 15L3 15L3 22L4 22L4 23L6 23L6 22L7 22L7 21L8 21L8 19L9 19L9 21L10 21L10 19L9 19L9 17L8 17L8 16L10 16L10 15L11 15L11 17L10 17L10 18L14 18L14 19L12 19L12 21L14 21L14 22L16 22L16 21L17 21L17 22L18 22L18 21L21 21L21 22L22 22L22 24L20 24L20 22L19 22L19 23L16 23L16 25L17 25L17 26L18 26L18 27L15 27L15 28L18 28L18 27L19 27L19 28L20 28L20 26L19 26L19 25L23 25L23 26L24 26L24 25L23 25L23 23L24 23L24 24L27 24L27 22L25 22L25 21L27 21L27 20L28 20L28 19L26 19L26 18L25 18L25 17L28 17L28 18L29 18L29 17L30 17L30 19L29 19L29 20L30 20L30 21L28 21L28 24L30 24L30 23L29 23L29 22L30 22L30 21L31 21L31 20L30 20L30 19L31 19L31 16L30 16L30 15L29 15L29 13L28 13L28 16L26 16L26 14L25 14L25 13L27 13L27 12L28 12L28 11L27 11L27 10L25 10L25 9L24 9L24 10L23 10L23 9L22 9L22 8L20 8L20 5L21 5L21 4L22 4L22 5L23 5L23 4L22 4L22 3L21 3L21 4L20 4L20 5L19 5L19 4L17 4L17 3L18 3L18 2L15 2L15 3L16 3L16 4L13 4L13 3L14 3L14 2ZM10 3L10 4L11 4L11 3ZM8 5L8 7L9 7L9 5ZM21 6L21 7L22 7L22 6ZM24 6L24 7L25 7L25 6ZM29 8L29 9L30 9L30 8ZM31 8L31 10L33 10L33 9L32 9L32 8ZM21 9L21 12L22 12L22 13L19 13L19 12L20 12L20 11L19 11L19 12L17 12L17 11L18 11L18 10L17 10L17 11L16 11L16 10L15 10L15 13L14 13L14 12L13 12L13 13L12 13L12 14L13 14L13 13L14 13L14 14L15 14L15 15L14 15L14 16L13 16L13 15L12 15L12 17L16 17L16 18L15 18L15 19L14 19L14 20L15 20L15 21L16 21L16 20L17 20L17 21L18 21L18 20L17 20L17 19L16 19L16 18L18 18L18 19L19 19L19 20L23 20L23 21L22 21L22 22L24 22L24 21L25 21L25 20L24 20L24 19L19 19L19 18L24 18L24 17L19 17L19 16L20 16L20 15L19 15L19 16L17 16L17 17L16 17L16 15L17 15L17 14L22 14L22 13L23 13L23 14L24 14L24 15L21 15L21 16L25 16L25 14L24 14L24 13L25 13L25 12L26 12L26 11L25 11L25 10L24 10L24 11L25 11L25 12L24 12L24 13L23 13L23 10L22 10L22 9ZM4 11L4 13L3 13L3 14L4 14L4 13L5 13L5 15L4 15L4 17L5 17L5 19L4 19L4 21L5 21L5 20L6 20L6 21L7 21L7 20L6 20L6 19L7 19L7 18L6 18L6 17L7 17L7 16L5 16L5 15L7 15L7 14L6 14L6 13L7 13L7 12L5 12L5 11ZM30 11L30 12L31 12L31 11ZM16 12L16 13L15 13L15 14L16 14L16 13L17 13L17 12ZM10 13L10 14L11 14L11 13ZM28 16L28 17L29 17L29 16ZM18 17L18 18L19 18L19 17ZM15 19L15 20L16 20L16 19ZM14 23L14 24L15 24L15 23ZM17 24L17 25L19 25L19 24ZM25 25L25 28L28 28L28 25ZM29 25L29 28L30 28L30 27L31 27L31 26L30 26L30 25ZM26 26L26 27L27 27L27 26ZM15 29L15 30L19 30L19 29ZM25 29L25 30L28 30L28 31L29 31L29 30L28 30L28 29ZM30 30L30 31L31 31L31 30ZM14 31L14 32L15 32L15 31ZM17 31L17 32L18 32L18 31ZM10 32L10 33L11 33L11 32ZM0 0L0 7L7 7L7 0ZM1 1L1 6L6 6L6 1ZM2 2L2 5L5 5L5 2ZM26 0L26 7L33 7L33 0ZM27 1L27 6L32 6L32 1ZM28 2L28 5L31 5L31 2ZM0 26L0 33L7 33L7 26ZM1 27L1 32L6 32L6 27ZM2 28L2 31L5 31L5 28Z" fill="#000000"/></g></g></svg>
